<mxfile host="app.diagrams.net" agent="Mozilla/5.0 (Macintosh; Intel Mac OS X 10_15_7) AppleWebKit/537.36 (KHTML, like Gecko) Chrome/139.0.0.0 Safari/537.36" version="28.2.0">
  <diagram name="Страница — 1" id="qQyhl8cEC5I3Xc91e9dq">
    <mxGraphModel dx="1186" dy="707" grid="1" gridSize="10" guides="1" tooltips="1" connect="1" arrows="1" fold="1" page="1" pageScale="1" pageWidth="850" pageHeight="1100" math="0" shadow="0">
      <root>
        <mxCell id="0" />
        <mxCell id="1" parent="0" />
        <mxCell id="DhTfBYhSW_z6Bcd5cQwN-1" value="Student" style="rounded=0;whiteSpace=wrap;html=1;" vertex="1" parent="1">
          <mxGeometry x="190" y="690" width="120" height="60" as="geometry" />
        </mxCell>
        <mxCell id="DhTfBYhSW_z6Bcd5cQwN-2" value="Disciplines" style="rounded=0;whiteSpace=wrap;html=1;" vertex="1" parent="1">
          <mxGeometry x="740" y="340" width="120" height="60" as="geometry" />
        </mxCell>
        <mxCell id="DhTfBYhSW_z6Bcd5cQwN-3" value="Perfomance Report" style="rounded=0;whiteSpace=wrap;html=1;" vertex="1" parent="1">
          <mxGeometry x="720" y="690" width="160" height="60" as="geometry" />
        </mxCell>
        <mxCell id="DhTfBYhSW_z6Bcd5cQwN-4" value="gender" style="ellipse;whiteSpace=wrap;html=1;" vertex="1" parent="1">
          <mxGeometry x="40" y="710" width="90" height="50" as="geometry" />
        </mxCell>
        <mxCell id="DhTfBYhSW_z6Bcd5cQwN-5" value="brith_date" style="ellipse;whiteSpace=wrap;html=1;" vertex="1" parent="1">
          <mxGeometry x="40" y="780" width="90" height="50" as="geometry" />
        </mxCell>
        <mxCell id="DhTfBYhSW_z6Bcd5cQwN-6" value="applied_at" style="ellipse;whiteSpace=wrap;html=1;" vertex="1" parent="1">
          <mxGeometry x="40" y="850" width="90" height="50" as="geometry" />
        </mxCell>
        <mxCell id="DhTfBYhSW_z6Bcd5cQwN-7" value="&lt;u&gt;id&lt;/u&gt;" style="ellipse;whiteSpace=wrap;html=1;" vertex="1" parent="1">
          <mxGeometry x="40" y="580" width="90" height="50" as="geometry" />
        </mxCell>
        <mxCell id="DhTfBYhSW_z6Bcd5cQwN-8" value="" style="endArrow=none;html=1;rounded=0;" edge="1" parent="1" source="DhTfBYhSW_z6Bcd5cQwN-7" target="DhTfBYhSW_z6Bcd5cQwN-1">
          <mxGeometry width="50" height="50" relative="1" as="geometry">
            <mxPoint x="280" y="650" as="sourcePoint" />
            <mxPoint x="440" y="910" as="targetPoint" />
          </mxGeometry>
        </mxCell>
        <mxCell id="DhTfBYhSW_z6Bcd5cQwN-9" value="" style="endArrow=none;html=1;rounded=0;" edge="1" parent="1" source="DhTfBYhSW_z6Bcd5cQwN-4" target="DhTfBYhSW_z6Bcd5cQwN-1">
          <mxGeometry width="50" height="50" relative="1" as="geometry">
            <mxPoint x="140" y="620" as="sourcePoint" />
            <mxPoint x="364" y="620" as="targetPoint" />
          </mxGeometry>
        </mxCell>
        <mxCell id="DhTfBYhSW_z6Bcd5cQwN-10" value="" style="endArrow=none;html=1;rounded=0;" edge="1" parent="1" source="DhTfBYhSW_z6Bcd5cQwN-5" target="DhTfBYhSW_z6Bcd5cQwN-1">
          <mxGeometry width="50" height="50" relative="1" as="geometry">
            <mxPoint x="150" y="630" as="sourcePoint" />
            <mxPoint x="374" y="630" as="targetPoint" />
          </mxGeometry>
        </mxCell>
        <mxCell id="DhTfBYhSW_z6Bcd5cQwN-11" value="" style="endArrow=none;html=1;rounded=0;" edge="1" parent="1" source="DhTfBYhSW_z6Bcd5cQwN-6" target="DhTfBYhSW_z6Bcd5cQwN-1">
          <mxGeometry width="50" height="50" relative="1" as="geometry">
            <mxPoint x="160" y="640" as="sourcePoint" />
            <mxPoint x="384" y="640" as="targetPoint" />
          </mxGeometry>
        </mxCell>
        <mxCell id="DhTfBYhSW_z6Bcd5cQwN-12" value="name" style="ellipse;whiteSpace=wrap;html=1;" vertex="1" parent="1">
          <mxGeometry x="890" y="230" width="90" height="50" as="geometry" />
        </mxCell>
        <mxCell id="DhTfBYhSW_z6Bcd5cQwN-14" value="&lt;u&gt;id&lt;/u&gt;" style="ellipse;whiteSpace=wrap;html=1;" vertex="1" parent="1">
          <mxGeometry x="620" y="230" width="90" height="50" as="geometry" />
        </mxCell>
        <mxCell id="DhTfBYhSW_z6Bcd5cQwN-59" style="edgeStyle=orthogonalEdgeStyle;rounded=0;orthogonalLoop=1;jettySize=auto;html=1;exitX=0.5;exitY=0;exitDx=0;exitDy=0;" edge="1" parent="1" source="DhTfBYhSW_z6Bcd5cQwN-15">
          <mxGeometry relative="1" as="geometry">
            <mxPoint x="965" y="590" as="targetPoint" />
          </mxGeometry>
        </mxCell>
        <mxCell id="DhTfBYhSW_z6Bcd5cQwN-15" value="&lt;u&gt;id&lt;/u&gt;" style="ellipse;whiteSpace=wrap;html=1;" vertex="1" parent="1">
          <mxGeometry x="920" y="610" width="90" height="50" as="geometry" />
        </mxCell>
        <mxCell id="DhTfBYhSW_z6Bcd5cQwN-17" value="control_type" style="ellipse;whiteSpace=wrap;html=1;" vertex="1" parent="1">
          <mxGeometry x="755" y="230" width="90" height="50" as="geometry" />
        </mxCell>
        <mxCell id="DhTfBYhSW_z6Bcd5cQwN-18" value="total_hours" style="ellipse;whiteSpace=wrap;html=1;" vertex="1" parent="1">
          <mxGeometry x="920" y="695" width="90" height="50" as="geometry" />
        </mxCell>
        <mxCell id="DhTfBYhSW_z6Bcd5cQwN-19" value="grade" style="ellipse;whiteSpace=wrap;html=1;" vertex="1" parent="1">
          <mxGeometry x="920" y="780" width="90" height="50" as="geometry" />
        </mxCell>
        <mxCell id="DhTfBYhSW_z6Bcd5cQwN-20" value="" style="endArrow=none;html=1;rounded=0;" edge="1" parent="1" source="DhTfBYhSW_z6Bcd5cQwN-15" target="DhTfBYhSW_z6Bcd5cQwN-3">
          <mxGeometry width="50" height="50" relative="1" as="geometry">
            <mxPoint x="640" y="460" as="sourcePoint" />
            <mxPoint x="690" y="410" as="targetPoint" />
          </mxGeometry>
        </mxCell>
        <mxCell id="DhTfBYhSW_z6Bcd5cQwN-22" value="" style="endArrow=none;html=1;rounded=0;entryX=0.5;entryY=0;entryDx=0;entryDy=0;" edge="1" parent="1" source="DhTfBYhSW_z6Bcd5cQwN-17" target="DhTfBYhSW_z6Bcd5cQwN-2">
          <mxGeometry width="50" height="50" relative="1" as="geometry">
            <mxPoint x="460" y="455" as="sourcePoint" />
            <mxPoint x="504" y="470" as="targetPoint" />
          </mxGeometry>
        </mxCell>
        <mxCell id="DhTfBYhSW_z6Bcd5cQwN-23" value="" style="endArrow=none;html=1;rounded=0;" edge="1" parent="1" source="DhTfBYhSW_z6Bcd5cQwN-18" target="DhTfBYhSW_z6Bcd5cQwN-3">
          <mxGeometry width="50" height="50" relative="1" as="geometry">
            <mxPoint x="470" y="465" as="sourcePoint" />
            <mxPoint x="514" y="480" as="targetPoint" />
          </mxGeometry>
        </mxCell>
        <mxCell id="DhTfBYhSW_z6Bcd5cQwN-24" value="" style="endArrow=none;html=1;rounded=0;" edge="1" parent="1" source="DhTfBYhSW_z6Bcd5cQwN-19" target="DhTfBYhSW_z6Bcd5cQwN-3">
          <mxGeometry width="50" height="50" relative="1" as="geometry">
            <mxPoint x="480" y="475" as="sourcePoint" />
            <mxPoint x="560" y="550" as="targetPoint" />
          </mxGeometry>
        </mxCell>
        <mxCell id="DhTfBYhSW_z6Bcd5cQwN-25" value="" style="endArrow=none;html=1;rounded=0;" edge="1" parent="1" source="DhTfBYhSW_z6Bcd5cQwN-2" target="DhTfBYhSW_z6Bcd5cQwN-14">
          <mxGeometry width="50" height="50" relative="1" as="geometry">
            <mxPoint x="240" y="485" as="sourcePoint" />
            <mxPoint x="284" y="500" as="targetPoint" />
          </mxGeometry>
        </mxCell>
        <mxCell id="DhTfBYhSW_z6Bcd5cQwN-26" value="" style="endArrow=none;html=1;rounded=0;" edge="1" parent="1" source="DhTfBYhSW_z6Bcd5cQwN-2" target="DhTfBYhSW_z6Bcd5cQwN-12">
          <mxGeometry width="50" height="50" relative="1" as="geometry">
            <mxPoint x="590" y="240" as="sourcePoint" />
            <mxPoint x="700" y="175" as="targetPoint" />
          </mxGeometry>
        </mxCell>
        <mxCell id="DhTfBYhSW_z6Bcd5cQwN-28" value="in" style="rhombus;whiteSpace=wrap;html=1;" vertex="1" parent="1">
          <mxGeometry x="720" y="480" width="160" height="80" as="geometry" />
        </mxCell>
        <mxCell id="DhTfBYhSW_z6Bcd5cQwN-29" value="" style="endArrow=none;html=1;rounded=0;" edge="1" parent="1" source="DhTfBYhSW_z6Bcd5cQwN-3" target="DhTfBYhSW_z6Bcd5cQwN-28">
          <mxGeometry width="50" height="50" relative="1" as="geometry">
            <mxPoint x="260" y="480" as="sourcePoint" />
            <mxPoint x="310" y="430" as="targetPoint" />
          </mxGeometry>
        </mxCell>
        <mxCell id="DhTfBYhSW_z6Bcd5cQwN-30" value="N" style="edgeLabel;html=1;align=center;verticalAlign=middle;resizable=0;points=[];" vertex="1" connectable="0" parent="DhTfBYhSW_z6Bcd5cQwN-29">
          <mxGeometry x="-0.0267" y="1" relative="1" as="geometry">
            <mxPoint as="offset" />
          </mxGeometry>
        </mxCell>
        <mxCell id="DhTfBYhSW_z6Bcd5cQwN-31" value="" style="endArrow=none;html=1;rounded=0;" edge="1" parent="1" source="DhTfBYhSW_z6Bcd5cQwN-28" target="DhTfBYhSW_z6Bcd5cQwN-2">
          <mxGeometry width="50" height="50" relative="1" as="geometry">
            <mxPoint x="420" y="460" as="sourcePoint" />
            <mxPoint x="470" y="410" as="targetPoint" />
          </mxGeometry>
        </mxCell>
        <mxCell id="DhTfBYhSW_z6Bcd5cQwN-32" value="1" style="edgeLabel;html=1;align=center;verticalAlign=middle;resizable=0;points=[];" vertex="1" connectable="0" parent="DhTfBYhSW_z6Bcd5cQwN-31">
          <mxGeometry x="0.2133" y="-1" relative="1" as="geometry">
            <mxPoint as="offset" />
          </mxGeometry>
        </mxCell>
        <mxCell id="DhTfBYhSW_z6Bcd5cQwN-33" value="has" style="rhombus;whiteSpace=wrap;html=1;" vertex="1" parent="1">
          <mxGeometry x="440" y="680" width="160" height="80" as="geometry" />
        </mxCell>
        <mxCell id="DhTfBYhSW_z6Bcd5cQwN-34" value="" style="endArrow=none;html=1;rounded=0;" edge="1" parent="1" source="DhTfBYhSW_z6Bcd5cQwN-3" target="DhTfBYhSW_z6Bcd5cQwN-33">
          <mxGeometry width="50" height="50" relative="1" as="geometry">
            <mxPoint x="410" y="410" as="sourcePoint" />
            <mxPoint x="460" y="360" as="targetPoint" />
          </mxGeometry>
        </mxCell>
        <mxCell id="DhTfBYhSW_z6Bcd5cQwN-35" value="N" style="edgeLabel;html=1;align=center;verticalAlign=middle;resizable=0;points=[];" vertex="1" connectable="0" parent="DhTfBYhSW_z6Bcd5cQwN-34">
          <mxGeometry x="0.1889" relative="1" as="geometry">
            <mxPoint as="offset" />
          </mxGeometry>
        </mxCell>
        <mxCell id="DhTfBYhSW_z6Bcd5cQwN-36" value="1" style="endArrow=none;html=1;rounded=0;" edge="1" parent="1" source="DhTfBYhSW_z6Bcd5cQwN-33" target="DhTfBYhSW_z6Bcd5cQwN-1">
          <mxGeometry width="50" height="50" relative="1" as="geometry">
            <mxPoint x="384" y="470" as="sourcePoint" />
            <mxPoint x="367" y="377" as="targetPoint" />
          </mxGeometry>
        </mxCell>
        <mxCell id="DhTfBYhSW_z6Bcd5cQwN-38" value="full_name" style="ellipse;whiteSpace=wrap;html=1;" vertex="1" parent="1">
          <mxGeometry x="40" y="650" width="90" height="50" as="geometry" />
        </mxCell>
        <mxCell id="DhTfBYhSW_z6Bcd5cQwN-39" value="" style="endArrow=none;html=1;rounded=0;" edge="1" parent="1" source="DhTfBYhSW_z6Bcd5cQwN-38" target="DhTfBYhSW_z6Bcd5cQwN-1">
          <mxGeometry width="50" height="50" relative="1" as="geometry">
            <mxPoint x="380" y="910" as="sourcePoint" />
            <mxPoint x="430" y="860" as="targetPoint" />
          </mxGeometry>
        </mxCell>
        <mxCell id="DhTfBYhSW_z6Bcd5cQwN-40" value="Group" style="rounded=0;whiteSpace=wrap;html=1;" vertex="1" parent="1">
          <mxGeometry x="190" y="340" width="120" height="60" as="geometry" />
        </mxCell>
        <mxCell id="DhTfBYhSW_z6Bcd5cQwN-41" style="edgeStyle=orthogonalEdgeStyle;rounded=0;orthogonalLoop=1;jettySize=auto;html=1;exitX=0.5;exitY=1;exitDx=0;exitDy=0;" edge="1" parent="1" source="DhTfBYhSW_z6Bcd5cQwN-40" target="DhTfBYhSW_z6Bcd5cQwN-40">
          <mxGeometry relative="1" as="geometry" />
        </mxCell>
        <mxCell id="DhTfBYhSW_z6Bcd5cQwN-42" value="&lt;u&gt;id&lt;/u&gt;" style="ellipse;whiteSpace=wrap;html=1;" vertex="1" parent="1">
          <mxGeometry x="30" y="230" width="90" height="50" as="geometry" />
        </mxCell>
        <mxCell id="DhTfBYhSW_z6Bcd5cQwN-43" value="" style="endArrow=none;html=1;rounded=0;" edge="1" parent="1" source="DhTfBYhSW_z6Bcd5cQwN-40" target="DhTfBYhSW_z6Bcd5cQwN-42">
          <mxGeometry width="50" height="50" relative="1" as="geometry">
            <mxPoint x="330" y="560" as="sourcePoint" />
            <mxPoint x="380" y="510" as="targetPoint" />
          </mxGeometry>
        </mxCell>
        <mxCell id="DhTfBYhSW_z6Bcd5cQwN-44" value="consists" style="rhombus;whiteSpace=wrap;html=1;" vertex="1" parent="1">
          <mxGeometry x="170" y="480" width="160" height="80" as="geometry" />
        </mxCell>
        <mxCell id="DhTfBYhSW_z6Bcd5cQwN-45" value="" style="endArrow=none;html=1;rounded=0;" edge="1" parent="1" source="DhTfBYhSW_z6Bcd5cQwN-44" target="DhTfBYhSW_z6Bcd5cQwN-40">
          <mxGeometry width="50" height="50" relative="1" as="geometry">
            <mxPoint x="220" y="520" as="sourcePoint" />
            <mxPoint x="270" y="470" as="targetPoint" />
          </mxGeometry>
        </mxCell>
        <mxCell id="DhTfBYhSW_z6Bcd5cQwN-46" value="1" style="edgeLabel;html=1;align=center;verticalAlign=middle;resizable=0;points=[];" vertex="1" connectable="0" parent="DhTfBYhSW_z6Bcd5cQwN-45">
          <mxGeometry x="0.0667" y="1" relative="1" as="geometry">
            <mxPoint as="offset" />
          </mxGeometry>
        </mxCell>
        <mxCell id="DhTfBYhSW_z6Bcd5cQwN-47" value="" style="endArrow=none;html=1;rounded=0;" edge="1" parent="1" source="DhTfBYhSW_z6Bcd5cQwN-44" target="DhTfBYhSW_z6Bcd5cQwN-1">
          <mxGeometry width="50" height="50" relative="1" as="geometry">
            <mxPoint x="220" y="520" as="sourcePoint" />
            <mxPoint x="270" y="470" as="targetPoint" />
          </mxGeometry>
        </mxCell>
        <mxCell id="DhTfBYhSW_z6Bcd5cQwN-48" value="N" style="edgeLabel;html=1;align=center;verticalAlign=middle;resizable=0;points=[];" vertex="1" connectable="0" parent="DhTfBYhSW_z6Bcd5cQwN-47">
          <mxGeometry x="-0.1564" relative="1" as="geometry">
            <mxPoint as="offset" />
          </mxGeometry>
        </mxCell>
        <mxCell id="DhTfBYhSW_z6Bcd5cQwN-49" value="number" style="ellipse;whiteSpace=wrap;html=1;" vertex="1" parent="1">
          <mxGeometry x="150" y="230" width="90" height="50" as="geometry" />
        </mxCell>
        <mxCell id="DhTfBYhSW_z6Bcd5cQwN-50" value="" style="endArrow=none;html=1;rounded=0;" edge="1" parent="1" source="DhTfBYhSW_z6Bcd5cQwN-40" target="DhTfBYhSW_z6Bcd5cQwN-49">
          <mxGeometry width="50" height="50" relative="1" as="geometry">
            <mxPoint x="280" y="450" as="sourcePoint" />
            <mxPoint x="330" y="400" as="targetPoint" />
          </mxGeometry>
        </mxCell>
        <mxCell id="DhTfBYhSW_z6Bcd5cQwN-51" value="faculty" style="ellipse;whiteSpace=wrap;html=1;" vertex="1" parent="1">
          <mxGeometry x="270" y="230" width="90" height="50" as="geometry" />
        </mxCell>
        <mxCell id="DhTfBYhSW_z6Bcd5cQwN-52" value="" style="endArrow=none;html=1;rounded=0;" edge="1" parent="1" source="DhTfBYhSW_z6Bcd5cQwN-40" target="DhTfBYhSW_z6Bcd5cQwN-51">
          <mxGeometry width="50" height="50" relative="1" as="geometry">
            <mxPoint x="225" y="350" as="sourcePoint" />
            <mxPoint x="150" y="286" as="targetPoint" />
          </mxGeometry>
        </mxCell>
        <mxCell id="DhTfBYhSW_z6Bcd5cQwN-54" value="year" style="ellipse;whiteSpace=wrap;html=1;" vertex="1" parent="1">
          <mxGeometry x="390" y="230" width="90" height="50" as="geometry" />
        </mxCell>
        <mxCell id="DhTfBYhSW_z6Bcd5cQwN-57" value="" style="endArrow=none;html=1;rounded=0;exitX=0.925;exitY=-0.017;exitDx=0;exitDy=0;entryX=0.5;entryY=1;entryDx=0;entryDy=0;exitPerimeter=0;" edge="1" parent="1" source="DhTfBYhSW_z6Bcd5cQwN-40" target="DhTfBYhSW_z6Bcd5cQwN-54">
          <mxGeometry width="50" height="50" relative="1" as="geometry">
            <mxPoint x="540" y="460" as="sourcePoint" />
            <mxPoint x="590" y="410" as="targetPoint" />
          </mxGeometry>
        </mxCell>
      </root>
    </mxGraphModel>
  </diagram>
</mxfile>
